<svg width="640" height="512" viewBox="0 0 640 512" fill="none" xmlns="http://www.w3.org/2000/svg">
<path d="M208 352C322.9 352 416 273.2 416 176C416 78.8 322.9 0 208 0C93.1 0 -4.18844e-05 78.8 -4.18844e-05 176C-4.18844e-05 214.6 14.7 250.3 39.6 279.4C36.1 288.8 30.9 297.1 25.4 304.1C20.6 310.3 15.7 315.1 12.1 318.4C10.3 320 8.79996 321.3 7.79996 322.1C7.29996 322.5 6.89996 322.8 6.69996 322.9L6.49996 323.1C0.999958 327.2 -1.40004 334.4 0.799958 340.9C2.99996 347.4 9.09996 352 16 352C37.8 352 59.8 346.4 78.1 339.5C87.3 336 95.9 332.1 103.4 328.1C134.1 343.3 169.8 352 208 352ZM448 176C448 288.3 348.9 372.9 231.5 383C255.8 457.4 336.4 512 432 512C470.2 512 505.9 503.3 536.7 488.1C544.2 492.1 552.7 496 561.9 499.5C580.2 506.4 602.2 512 624 512C630.9 512 637.1 507.5 639.2 500.9C641.3 494.3 639 487.1 633.4 483L633.2 482.8C633 482.6 632.6 482.4 632.1 482C631.1 481.2 629.6 480 627.8 478.3C624.2 475 619.3 470.2 614.5 464C609 457 603.8 448.6 600.3 439.3C625.2 410.3 639.9 374.6 639.9 335.9C639.9 243.1 555 167 447.3 160.4C447.7 165.5 447.9 170.7 447.9 175.9L448 176Z" fill="white"/>
</svg>
